<svg width="19" height="20" viewBox="0 0 19 20" fill="none" xmlns="http://www.w3.org/2000/svg">
<path d="M2 20C1.45 20 0.979002 19.804 0.587002 19.412C0.195002 19.02 -0.000664969 18.5493 1.69779e-06 18V2C1.69779e-06 1.45 0.196001 0.979002 0.588001 0.587002C0.980001 0.195002 1.45067 -0.000664969 2 1.69779e-06H9.175C9.44167 1.69779e-06 9.696 0.0500018 9.938 0.150002C10.18 0.250002 10.3923 0.391668 10.575 0.575002L15.425 5.425C15.6083 5.60834 15.75 5.821 15.85 6.063C15.95 6.305 16 6.559 16 6.825V9.1L8 17.075V20H2ZM10.5 20C10.3667 20 10.25 19.95 10.15 19.85C10.05 19.75 10 19.6333 10 19.5V18.3C10 18.1667 10.0293 18.0333 10.088 17.9C10.1467 17.7667 10.2173 17.6583 10.3 17.575L15.15 12.7L17.3 14.8L12.425 19.7C12.3417 19.8 12.2333 19.875 12.1 19.925C11.9667 19.975 11.8333 20 11.7 20H10.5ZM18.025 14.1L15.9 11.975L16.6 11.275C16.8 11.075 17.0417 10.975 17.325 10.975C17.6083 10.975 17.8417 11.075 18.025 11.275L18.725 12C18.9083 12.2 19 12.4377 19 12.713C19 12.9883 18.9083 13.2173 18.725 13.4L18.025 14.1ZM10 7H14L9 2V6C9 6.28334 9.096 6.521 9.288 6.713C9.48 6.905 9.71734 7.00067 10 7Z" fill="#8EA7E9"/>
</svg>
